<?xml version="1.0" encoding="utf-8"?>
<!-- Generator: Adobe Illustrator 24.1.1, SVG Export Plug-In . SVG Version: 6.00 Build 0)  -->
<svg version="1.1" id="Layer_1" xmlns="http://www.w3.org/2000/svg" xmlns:xlink="http://www.w3.org/1999/xlink" x="0px" y="0px"
	 viewBox="0 0 1366 768" style="enable-background:new 0 0 1366 768;" xml:space="preserve">
<style type="text/css">
	.st0{fill:#070707;}
	.st1{fill:#050505;}
	.st2{fill:#020202;}
	.st3{font-family:'HemicubeTypePERSONALUSEONLY';}
	.st4{font-size:213.7517px;}
</style>
<g>
	<ellipse class="st0" cx="149.84" cy="67.48" rx="61.05" ry="45.48"/>
	<ellipse class="st1" cx="184.53" cy="197.73" rx="43.01" ry="32.04"/>
	<ellipse cx="254.59" cy="295.41" rx="27.05" ry="20.16"/>
	<ellipse class="st1" cx="306.62" cy="115.03" rx="41.62" ry="31.01"/>
	<ellipse cx="448.14" cy="97.46" rx="40.24" ry="29.98"/>
	<ellipse cx="466.87" cy="209.1" rx="86.71" ry="65.12"/>
	<ellipse class="st2" cx="648.62" cy="181.7" rx="50.64" ry="37.73"/>
	<ellipse cx="518.2" cy="334.69" rx="52.03" ry="38.76"/>
	<ellipse class="st2" cx="634.05" cy="283.52" rx="30.52" ry="22.74"/>
	<ellipse cx="714.52" cy="351.74" rx="74.92" ry="55.82"/>
	<ellipse cx="557.74" cy="427.2" rx="31.91" ry="23.77"/>
	<ellipse cx="687.47" cy="462.86" rx="53.42" ry="39.8"/>
	<ellipse class="st2" cx="835.92" cy="449.43" rx="39.54" ry="29.46"/>
	<ellipse cx="770.71" cy="520.75" rx="24.28" ry="18.09"/>
	<ellipse class="st0" cx="936.51" cy="517.13" rx="51.33" ry="38.25"/>
	<ellipse cx="1057.91" cy="541.42" rx="31.22" ry="23.26"/>
	<ellipse cx="1149.48" cy="473.2" rx="39.54" ry="29.46"/>
	<ellipse cx="1236.2" cy="392.06" rx="54.11" ry="40.31"/>
	<ellipse cx="782.51" cy="254.58" rx="27.75" ry="20.67"/>
	<text transform="matrix(0.3385 0 0 1 0 737.0654)" class="st3 st4">Campaign Management</text>
	<text transform="matrix(4.5041 0 0 1 1933.5117 437.9805)" class="st3" style="font-size:17.5132px;">Lorem ipsum</text>
</g>
</svg>
