<?xml version="1.0" encoding="utf-8"?>
<!-- Generator: Adobe Illustrator 24.1.1, SVG Export Plug-In . SVG Version: 6.00 Build 0)  -->
<svg version="1.1" id="Layer_1" xmlns="http://www.w3.org/2000/svg" xmlns:xlink="http://www.w3.org/1999/xlink" x="0px" y="0px"
	 viewBox="0 0 1366 768" style="enable-background:new 0 0 1366 768;" xml:space="preserve">
<style type="text/css">
	.st0{fill:#E84E4E;}
	.st1{font-family:'HemicubeTypePERSONALUSEONLY';}
	.st2{font-size:213.7517px;}
</style>
<g>
	<ellipse class="st0" cx="166.84" cy="59.48" rx="61.05" ry="45.48"/>
	<ellipse class="st0" cx="184.53" cy="159.73" rx="43.01" ry="32.04"/>
	<ellipse class="st0" cx="254.59" cy="257.41" rx="27.05" ry="20.16"/>
	<ellipse class="st0" cx="306.62" cy="77.03" rx="41.62" ry="31.01"/>
	<ellipse class="st0" cx="448.14" cy="69.46" rx="40.24" ry="29.98"/>
	<ellipse class="st0" cx="434.87" cy="181.1" rx="86.71" ry="65.12"/>
	<ellipse class="st0" cx="608.62" cy="143.7" rx="50.64" ry="37.73"/>
	<ellipse class="st0" cx="518.2" cy="296.69" rx="52.03" ry="38.76"/>
	<ellipse class="st0" cx="634.05" cy="245.52" rx="30.52" ry="22.74"/>
	<ellipse class="st0" cx="735.52" cy="313.74" rx="74.92" ry="55.82"/>
	<ellipse class="st0" cx="557.74" cy="389.2" rx="31.91" ry="23.77"/>
	<ellipse class="st0" cx="687.47" cy="424.86" rx="53.42" ry="39.8"/>
	<ellipse class="st0" cx="835.92" cy="411.43" rx="39.54" ry="29.46"/>
	<ellipse class="st0" cx="770.71" cy="482.75" rx="24.28" ry="18.09"/>
	<ellipse class="st0" cx="936.51" cy="479.13" rx="51.33" ry="38.25"/>
	<ellipse class="st0" cx="1057.91" cy="503.42" rx="31.22" ry="23.26"/>
	<ellipse class="st0" cx="1149.48" cy="435.2" rx="39.54" ry="29.46"/>
	<ellipse class="st0" cx="1236.2" cy="354.06" rx="54.11" ry="40.31"/>
	<ellipse class="st0" cx="782.51" cy="216.58" rx="27.75" ry="20.67"/>
	<text transform="matrix(0.3385 0 0 1 0 699.0654)" class="st0 st1 st2">Campaign Management</text>
	<text transform="matrix(4.5041 0 0 1 1933.5117 399.9805)" class="st1" style="font-size:17.5132px;">Lorem ipsum</text>
</g>
</svg>
